# xmcd
#
# Track frame offsets: 
#        150
#        13038
#        25113
#        40974
#        56001
#        77247
#        91191
#        111903
#        127311
#        138927
#
# Disc length: 2018 seconds
#
# Revision: 0
# Processed by: cddbd v1.5.2PL0 Copyright (c) Steve Scherf et al.
# Submitted via: ExactAudioCopyFreeDBPlugin 1.0
#
DISCID=8307e00a
DTITLE=Oh My Darling - Sweet Nostalgia
DYEAR=2011
DGENRE=Folk
TTITLE0=Anna K
TTITLE1=Fly Around
TTITLE2=Cage Bird
TTITLE3=Roustabout
TTITLE4=Mister Guy
TTITLE5=Ma Belle
TTITLE6=Love Me Love Me Not
TTITLE7=Kiss And Tell
TTITLE8=Don't Come 'Round Here
TTITLE9=All The Sweetness
EXTD=
EXTT0=
EXTT1=
EXTT2=
EXTT3=
EXTT4=
EXTT5=
EXTT6=
EXTT7=
EXTT8=
EXTT9=
PLAYORDER=
